HIERARCHY
ROOT Hips
{
	OFFSET 0.00 0.00 0.00
	CHANNELS 6 Xposition Yposition Zposition Xrotation Yrotation Zrotation
	JOINT Spine
	{
		OFFSET 0.00000 1.70439 2.55658
		CHANNELS 3 Xrotation Yrotation Zrotation
		JOINT Spine1
		{
			OFFSET 0.00000 0.59193 3.35699
			CHANNELS 3 Xrotation Yrotation Zrotation
			JOINT Spine2
			{
				OFFSET 0.00000 0.29710 3.39581
				CHANNELS 3 Xrotation Yrotation Zrotation
				JOINT Spine3
				{
					OFFSET 0.00000 0.00000 3.40878
					CHANNELS 3 Xrotation Yrotation Zrotation
					JOINT Neck
					{
						OFFSET 0.00000 -1.27828 8.94804
						CHANNELS 3 Xrotation Yrotation Zrotation
						JOINT Head
						{
							OFFSET 0.00000 -0.81390 4.61586
							CHANNELS 3 Xrotation Yrotation Zrotation
							End Site
							{
								OFFSET 0.00000 0.00001 5.51796
							}
						}
					}
					JOINT RightShoulder
					{
						OFFSET -1.18875 -1.98124 6.41925
						CHANNELS 3 Xrotation Yrotation Zrotation
						JOINT RightArm
						{
							OFFSET -5.90412 0.00000 0.00000
							CHANNELS 3 Xrotation Yrotation Zrotation
							JOINT RightForeArm
							{
								OFFSET -11.94674 0.00000 0.00000
								CHANNELS 3 Xrotation Yrotation Zrotation
								JOINT RightHand
								{
									OFFSET -10.17720 0.00000 0.00000
									CHANNELS 3 Xrotation Yrotation Zrotation
									JOINT RightHandEnd
									{
										OFFSET -2.84518 0.00000 0.00000
										CHANNELS 3 Xrotation Yrotation Zrotation
										End Site
										{
											OFFSET -2.84518 0.00000 0.00000
										}
									}
									JOINT RightHandThumb1
									{
										OFFSET -1.13807 -1.89679 -0.75871
										CHANNELS 3 Yrotation Xrotation Zrotation
										End Site
										{
											OFFSET -2.74823 -0.73639 0.00000
										}
									}
								}
							}
						}
					}
					JOINT LeftShoulder
					{
						OFFSET 1.18875 -1.98124 6.41925
						CHANNELS 3 Xrotation Yrotation Zrotation
						JOINT LeftArm
						{
							OFFSET 5.90412 0.00000 0.00000
							CHANNELS 3 Xrotation Yrotation Zrotation
							JOINT LeftForeArm
							{
								OFFSET 11.94674 0.00000 0.00000
								CHANNELS 3 Xrotation Yrotation Zrotation
								JOINT LeftHand
								{
									OFFSET 10.17720 0.00000 0.00000
									CHANNELS 3 Xrotation Yrotation Zrotation
									JOINT LeftHandEnd
									{
										OFFSET 2.84518 0.00000 0.00000
										CHANNELS 3 Xrotation Yrotation Zrotation
										End Site
										{
											OFFSET 2.84518 0.00000 0.00000
										}
									}
									JOINT LeftHandThumb1
									{
										OFFSET 1.13807 -1.89679 -0.75871
										CHANNELS 3 Yrotation Xrotation Zrotation
										End Site
										{
											OFFSET 2.74823 -0.73639 0.00000
										}
									}
								}
							}
						}
					}
				}
			}
		}
	}
	JOINT RightUpLeg
	{
		OFFSET -3.52662 0.00000 -1.03025
		CHANNELS 3 Xrotation Yrotation Zrotation
		JOINT RightLeg
		{
			OFFSET 0.00001 0.00000 -17.80159
			CHANNELS 3 Xrotation Yrotation Zrotation
			JOINT RightFoot
			{
				OFFSET 0.00001 0.00000 -16.85992
				CHANNELS 3 Xrotation Yrotation Zrotation
				JOINT RightToeBase
				{
					OFFSET 0.00000 -5.42953 -1.97619
					CHANNELS 3 Xrotation Yrotation Zrotation
					End Site
					{
						OFFSET 0.00000 -2.85300 -0.00000
					}
				}
			}
		}
	}
	JOINT LeftUpLeg
	{
		OFFSET 3.52662 0.00000 -1.03025
		CHANNELS 3 Xrotation Yrotation Zrotation
		JOINT LeftLeg
		{
			OFFSET 0.00001 0.00000 -17.80159
			CHANNELS 3 Xrotation Yrotation Zrotation
			JOINT LeftFoot
			{
				OFFSET 0.00001 0.00000 -16.85992
				CHANNELS 3 Xrotation Yrotation Zrotation
				JOINT LeftToeBase
				{
					OFFSET 0.00000 -5.42953 -1.97619
					CHANNELS 3 Xrotation Yrotation Zrotation
					End Site
					{
						OFFSET 0.00000 -2.85300 -0.00000
					}
				}
			}
		}
	}
}
MOTION
Frames: 7
Frame Time: 0.008342
 19.2581 4.1598 37.5090 5.7023 1.7466 -153.4582 1.4238 -1.4731 -0.4511 0.8209 0.1838 -0.0201 3.5072 0.9664 0.8596 1.9049 0.4800 -0.0501 1.5930 0.8349 7.8170 -2.0479 4.4791 17.5960 18.4773 -19.4510 12.5036 21.9641 -29.0341 26.3875 0.0000 0.0000 17.8610 -19.4096 15.2629 -5.6781 0.0000 0.0000 0.0000 -0.0000 0.0000 -0.0000 5.0808 10.7333 -16.7587 -36.5431 37.3316 -1.9824 -0.0000 -0.0000 -59.4797 -70.2246 -22.3688 9.3463 -0.0000 0.0000 -0.0000 -0.0000 -0.0000 -0.0000 0.6737 -1.5639 -35.7079 21.3984 0.0000 0.0000 -18.7002 4.4683 -13.6529 2.3632 0.0000 0.0000 -6.3291 -15.8342 -10.4867 38.5192 0.0000 0.0000 3.6564 14.5469 -9.8676 -24.4317 0.0000 -0.0000
 19.2187 4.1889 37.5193 5.7057 1.8434 -153.4392 1.3658 -1.4505 -0.4526 0.7995 0.2037 -0.0091 3.3703 0.9123 0.9228 1.8809 0.4338 -0.0202 1.5062 0.9176 7.9122 -2.1287 4.4920 17.6132 18.4092 -19.5919 12.5766 21.3942 -28.9769 26.1826 0.0000 0.0000 18.2234 -19.2652 16.1651 -5.6531 -0.0000 0.0000 -0.0000 0.0000 -0.0000 0.0000 4.4477 10.2806 -16.9516 -37.9110 36.9857 -1.8927 -0.0000 -0.0001 -60.7828 -69.7011 -20.9059 8.3363 -0.0000 0.0000 -0.0000 0.0000 -0.0000 0.0000 0.8436 -1.4608 -35.8155 21.2928 0.0000 0.0000 -18.6859 4.4423 -13.5663 2.4066 0.0000 0.0000 -6.2281 -15.9074 -10.0621 38.4041 0.0000 0.0000 4.0621 14.7896 -10.4902 -24.4883 0.0000 -0.0000
 19.1782 4.2155 37.5294 5.6794 1.9187 -153.4211 1.2796 -1.4270 -0.4519 0.7819 0.2263 -0.0032 3.2334 0.8425 0.9916 1.8546 0.3793 0.0101 1.4125 1.0188 8.0157 -2.2333 4.4967 17.6171 18.3559 -19.7372 12.6593 20.7758 -28.9322 25.9469 0.0000 0.0000 18.6295 -19.1836 17.0297 -5.6271 0.0000 -0.0000 -0.0000 -0.0000 -0.0000 0.0000 3.8711 9.7904 -17.1708 -39.4458 36.7025 -1.7233 -0.0000 -0.0001 -61.9402 -69.0815 -19.1984 7.3092 0.0000 -0.0000 0.0000 0.0000 -0.0000 0.0000 0.9731 -1.3579 -35.9306 21.1899 0.0000 0.0000 -18.6693 4.4114 -13.4718 2.4472 0.0000 0.0000 -6.1703 -15.9883 -9.6271 38.2875 0.0000 0.0000 4.4431 15.0881 -11.1071 -24.4505 0.0000 -0.0000
 19.1356 4.2416 37.5397 5.6598 1.9872 -153.4005 1.2058 -1.4055 -0.4529 0.7625 0.2506 0.0047 3.0929 0.7564 1.0512 1.8288 0.3176 0.0442 1.3168 1.1390 8.1268 -2.3572 4.4885 17.6109 18.3156 -19.8855 12.7561 20.1209 -28.8986 25.6797 0.0000 0.0000 19.0805 -19.1553 17.8348 -5.6061 -0.0000 0.0000 -0.0000 0.0000 -0.0000 -0.0000 3.3421 9.2736 -17.4052 -41.1092 36.4741 -1.4898 -0.0000 -0.0001 -62.9396 -68.3565 -17.3305 6.3068 0.0000 -0.0000 -0.0000 -0.0000 -0.0000 0.0000 1.1154 -1.2603 -36.0755 21.0729 0.0000 0.0000 -18.6462 4.3676 -13.3508 2.4846 0.0000 0.0000 -6.1073 -16.0780 -9.1819 38.1555 0.0000 0.0000 4.7705 15.4469 -11.6759 -24.2992 0.0000 -0.0000
 19.0905 4.2667 37.5501 5.6389 2.0420 -153.3778 1.1286 -1.3912 -0.4539 0.7478 0.2770 0.0084 2.9487 0.6544 1.1091 1.8015 0.2488 0.0780 1.2217 1.2802 8.2483 -2.5002 4.4696 17.5904 18.2848 -20.0330 12.8667 19.4372 -28.8779 25.3840 0.0000 0.0000 19.5745 -19.1733 18.5651 -5.5864 0.0000 -0.0000 -0.0000 -0.0000 0.0000 0.0000 2.8431 8.7427 -17.6455 -42.8625 36.2979 -1.1981 -0.0000 -0.0001 -63.7803 -67.5085 -15.4108 5.3759 -0.0000 -0.0000 -0.0000 0.0000 -0.0000 0.0000 1.2585 -1.1698 -36.2484 20.9435 0.0000 0.0000 -18.6166 4.3105 -13.2044 2.5179 0.0000 0.0000 -6.0500 -16.1756 -8.7260 38.0069 0.0000 0.0000 5.0103 15.8674 -12.1475 -24.0236 0.0000 -0.0000
 19.0423 4.2910 37.5607 5.6217 2.0889 -153.3541 1.0557 -1.3818 -0.4568 0.7321 0.2989 0.0138 2.8035 0.5417 1.1584 1.7734 0.1758 0.1143 1.1291 1.4417 8.3772 -2.6614 4.4392 17.5574 18.2601 -20.1820 12.9865 18.7423 -28.8616 25.0713 0.0000 0.0000 20.1069 -19.2285 19.2046 -5.5670 0.0000 0.0000 -0.0000 0.0000 0.0000 0.0000 2.3578 8.2079 -17.8824 -44.6589 36.1701 -0.8599 -0.0000 -0.0001 -64.4691 -66.5249 -13.5693 4.5545 0.0000 -0.0000 -0.0000 -0.0000 -0.0000 0.0000 1.4109 -1.0820 -36.4513 20.8011 0.0000 0.0000 -18.5811 4.2385 -13.0294 2.5496 0.0000 0.0000 -5.9869 -16.2739 -8.2595 37.8339 0.0000 0.0000 5.1279 16.3457 -12.4660 -23.6252 0.0000 -0.0000
 18.9900 4.3150 37.5719 5.6200 2.1407 -153.3322 1.0013 -1.3742 -0.4602 0.7183 0.3212 0.0181 2.6559 0.4166 1.1996 1.7422 0.0955 0.1523 1.0425 1.6275 8.5147 -2.8399 4.3972 17.5120 18.2383 -20.3256 13.1164 18.0486 -28.8508 24.7465 0.0000 0.0000 20.6783 -19.3072 19.7529 -5.5505 0.0000 0.0000 -0.0000 0.0000 -0.0000 -0.0000 1.8651 7.6902 -18.1002 -46.4355 36.0845 -0.4952 -0.0000 -0.0001 -65.0181 -65.4010 -11.9377 3.8672 0.0000 0.0000 0.0000 0.0000 -0.0000 0.0000 1.5909 -0.9892 -36.6857 20.6461 0.0000 0.0000 -18.5411 4.1497 -12.8217 2.5798 0.0000 0.0000 -5.8942 -16.3621 -7.7817 37.6261 0.0000 0.0000 5.0890 16.8703 -12.5757 -23.1168 0.0000 -0.0000
